<?xml version="1.0" encoding="utf-8"?>
<!-- Generator: Adobe Illustrator 16.0.0, SVG Export Plug-In . SVG Version: 6.00 Build 0)  -->
<!DOCTYPE svg PUBLIC "-//W3C//DTD SVG 1.1//EN" "http://www.w3.org/Graphics/SVG/1.1/DTD/svg11.dtd">
<svg version="1.1" xmlns="http://www.w3.org/2000/svg" xmlns:xlink="http://www.w3.org/1999/xlink" x="0px" y="0px"
	 width="710.509px" height="222px" viewBox="0 0 710.509 222" enable-background="new 0 0 710.509 222" xml:space="preserve">
<g id="Layer_1">
	<g>
		<g>
			<path fill="#010101" d="M266.736,84.777c-0.316,3.584-1.054,7.379-1.054,11.069c0,0.843,0.316,1.898,1.265,1.898
				c2.003,0,6.536-7.907,15.075-7.907c10.542,0,14.654,9.593,14.127,18.66c-1.265,20.874-14.338,37.32-38.058,37.32
				c-8.645,0-19.397-3.163-19.397-13.6c0-4.955,1.581-12.651,2.425-17.711c1.265-8.118,2.635-17.711,2.635-25.934
				c0-2.952,0-4.006-3.163-4.217c-3.163-0.21-4.428-0.421-4.428-4.111c0-4.533,4.111-6.009,7.801-7.274
				c4.322-1.582,13.705-3.901,18.238-3.901c6.431,0,5.693,3.057,5.271,8.961L266.736,84.777z M261.464,131.058
				c0.211,1.476,0.422,3.584,2.319,3.584c6.537,0,8.75-20.558,8.645-22.35c-0.105-1.898-0.211-5.904-2.952-5.904
				C263.468,106.389,261.148,129.266,261.464,131.058z"/>
			<path fill="#010101" d="M292.987,124.943c0-20.136,15.813-35,35.844-35c13.178,0,24.037,7.063,24.037,20.874
				c0,20.136-15.813,35-35.844,35C303.845,145.817,292.987,138.753,292.987,124.943z M319.132,111.133
				c-1.16,5.693-2.108,12.861-2.108,18.66c0,2.425,0.632,4.85,3.374,4.85c4.428,0,5.271-6.326,5.903-9.488
				c1.054-5.376,2.53-13.494,2.53-18.871c0-2.425-0.527-5.166-3.479-5.166C320.924,101.118,319.87,107.865,319.132,111.133z"/>
			<path fill="#010101" d="M351.075,124.943c0-20.136,15.813-35,35.844-35c13.178,0,24.036,7.063,24.036,20.874
				c0,20.136-15.813,35-35.844,35C361.934,145.817,351.075,138.753,351.075,124.943z M377.22,111.133
				c-1.159,5.693-2.108,12.861-2.108,18.66c0,2.425,0.633,4.85,3.374,4.85c4.428,0,5.271-6.326,5.903-9.488
				c1.055-5.376,2.53-13.494,2.53-18.871c0-2.425-0.527-5.166-3.479-5.166C379.013,101.118,377.958,107.865,377.22,111.133z"/>
			<path fill="#010101" d="M436.995,121.042c-1.055,4.639,0.315,7.485,2.951,7.485c2.53,0,4.428-2.003,6.01-2.003
				c2.214,0,2.846,2.003,2.846,3.795c0,8.223-20.03,14.97-26.145,14.97c-6.325,0-10.542-3.057-10.542-9.804
				c0-3.374,0.526-6.747,1.054-10.015l3.163-18.555c0.737-4.111,0.422-4.638-3.796-4.638c-2.529,0-3.9-0.738-3.9-3.584
				c0-4.533,2.214-7.063,6.642-7.485c3.374-0.421,3.69-1.476,5.166-6.325c0.949-3.163,2.108-6.22,4.955-7.59
				c3.689-1.792,9.066-2.319,13.178-2.319c2.636,0,4.006,1.16,4.006,3.9c-0.211,2.108-0.948,8.118-0.948,9.805
				c0,3.163,3.479,2.108,6.642,2.108c1.37,0,2.635,0.316,2.635,1.897c0,1.476-0.315,3.163-0.526,4.533
				c-0.316,2.319-0.316,4.533-3.163,4.533c-7.274,0-7.274-0.316-8.855,8.855L436.995,121.042z"/>
			<path fill="#010101" d="M493.923,126.208c2.741,0,4.111,3.479,4.111,5.798c0,3.795-4.743,6.747-7.695,8.329
				c-6.431,3.584-12.861,5.482-20.347,5.482c-12.967,0-22.982-5.798-22.982-19.925c0-19.503,17.605-35.949,36.793-35.949
				c8.539,0,17.395,4.217,17.711,14.021c0.211,6.642-5.693,12.967-12.335,12.967c-3.479,0-7.801-2.319-7.801-6.325
				c0-2.846,1.792-5.271,1.792-7.063c0-1.054-0.844-1.897-1.897-1.897c-6.536-0.105-8.434,17.079-8.434,21.823
				c0,3.374,0.737,8.645,5.271,8.645c3.901,0,7.38-1.792,10.648-3.69C490.339,127.473,492.025,126.208,493.923,126.208z"/>
			<path fill="#010101" d="M526.814,125.154c0,1.265,0.105,3.69,1.792,3.69c1.054,0,2.108-0.316,3.162-0.316
				c1.793,0,2.319,1.792,2.319,3.268c0,8.75-17.184,13.389-24.036,13.389c-5.692,0-9.172-2.635-8.539-10.226
				c1.476-17.078,4.744-36.476,6.114-48.811c0.211-1.687-0.211-2.53-2.003-2.53c-0.844,0-1.687,0.211-2.53,0.211
				c-2.108,0-3.268-0.949-3.268-3.057c0-5.271,4.849-6.958,9.066-8.329c5.165-1.687,12.123-3.374,17.5-3.374
				c3.689,0,6.009,0.949,6.009,5.061L526.814,125.154z"/>
			<path fill="#010101" d="M587.959,102.488c0,12.756-14.231,22.666-26.145,22.666c-1.476,0-4.111,0-4.111,2.214
				c0,3.057,3.795,4.744,6.431,4.744c7.59,0,13.389-6.009,16.762-6.009c2.214,0,4.218,2.319,4.218,4.428
				c0,5.587-7.063,9.066-11.386,11.07c-5.904,2.635-11.597,4.217-18.238,4.217c-12.862,0-24.037-5.587-23.51-19.714
				c0.949-21.928,21.401-36.16,40.588-36.16C580.896,89.942,587.959,93.211,587.959,102.488z M557.492,113.557
				c0,1.265,0.422,2.952,1.897,2.952c2.952,0,8.117-7.801,7.802-12.862c-0.105-1.37-0.738-3.268-2.425-3.268
				C560.444,100.379,557.492,110.184,557.492,113.557z"/>
			<path fill="#010101" d="M645.204,94.476c-0.422,6.326-2.319,15.813-3.163,27.199c-0.105,1.687-0.527,5.061,0.105,6.747
				c0.422,1.265,1.159,1.16,2.319,1.265c1.581,0.211,2.636,0.949,2.636,2.636c0,6.853-15.392,12.967-21.19,12.967
				c-9.383,0-4.85-8.961-8.223-8.961c-2.741,0-7.907,9.488-18.766,9.488c-9.699,0-13.705-8.54-13.283-17.079
				c0.844-18.976,12.65-36.687,28.886-38.163c7.38-0.738,10.332,4.322,13.389,4.322c1.16,0,3.058-1.16,4.006-1.687
				c2.952-1.476,5.693-2.741,8.961-2.741C643.833,90.47,645.414,91.524,645.204,94.476z M623.803,105.65
				c0-1.37-0.422-3.479-2.108-3.373c-5.588,0.421-12.65,16.129-12.545,22.876c0,1.582,0.315,4.322,2.424,4.112
				C617.161,128.844,624.014,110.922,623.803,105.65z"/>
			<path fill="#010101" d="M685.896,111.027c0-1.898-0.948-3.374-2.952-3.374c-7.695,0-9.066,16.024-9.698,22.455
				c-1.055,11.596-3.374,14.337-16.974,15.075c-3.795,0.211-7.695-0.843-7.695-5.482c0-5.271,4.85-21.084,4.533-30.256
				c0-2.108-0.738-3.374-2.952-3.374h-1.055c-2.108,0-2.951-1.265-2.951-3.374c0-2.952,3.057-5.06,5.376-6.325
				c4.428-2.636,14.127-5.798,19.188-5.798c6.431,0,3.584,9.277,6.853,9.277c2.636,0,11.28-9.383,20.452-9.383
				c6.114,0,12.018,3.584,12.018,10.226c0,7.485-3.689,20.136-3.689,26.566c0,4.217,5.061,1.582,5.061,5.693
				c0,7.696-15.919,12.229-21.928,12.229c-4.639,0-7.591-2.319-7.591-7.063c0-5.377,1.897-12.229,2.741-17.711L685.896,111.027z"/>
			<path fill="#010101" d="M247.118,179.333c1.419-2.757,4.095-4.825,8.149-4.825c5.595,0,9.366,4.622,9.366,11.108
				c0,7.906-5.027,11.595-9.649,11.595c-3.568,0-6.122-1.419-7.946-4.581h-0.122l-0.122,4.095h-1.338
				c0.122-1.541,0.162-3.406,0.162-4.825v-27.407h1.419v14.839H247.118z M247.037,188.333c0,3.446,3.041,7.703,7.825,7.703
				c5.271,0,8.311-4.419,8.311-10.379c0-5.23-2.878-9.933-8.068-9.933c-5.149,0-8.068,5.027-8.068,8.271V188.333z"/>
			<path fill="#010101" d="M286.286,174.994l-6.73,16.501c-4.459,11.23-6.122,12.933-10.744,15.244l-0.527-1.135
				c6-2.352,7.946-9.446,7.946-9.568c0-0.203-0.122-0.486-0.284-0.892l-8.109-20.15h1.622l6.041,14.96
				c0.608,1.581,1.095,2.878,1.703,4.581h0.081c0.648-1.622,1.176-3.081,1.865-4.905l5.554-14.636H286.286z"/>
			<path fill="#010101" d="M310.005,175.886c-0.365-0.041-0.567-0.081-0.932-0.081c-3.527,0-6.041,3.892-6.041,8.757v12.163h-1.419
				V181.4c0-1.986-0.041-4.297-0.162-6.406h1.338l0.081,4.541h0.122c0.892-2.676,3.122-5.027,6.203-5.027
				c0.284,0,0.527,0.041,0.811,0.122V175.886z"/>
			<path fill="#010101" d="M332.184,174.994c-0.122,1.663-0.162,3.365-0.162,5.473v13.055c0,5.797-1.257,8.473-2.959,10.135
				c-1.987,1.865-4.744,2.554-7.095,2.554c-1.946,0-5.149-0.811-6.771-1.946l0.689-1.095c1.744,1.176,4.136,1.865,6.325,1.865
				c5.271,0,8.393-3.527,8.393-9.649v-3.162h-0.122c-1.095,2.27-3.689,4.622-7.784,4.622c-5.514,0-9.366-4.906-9.366-10.744
				c0-7.825,4.987-11.595,9.73-11.595c4.5,0,6.771,2.554,7.582,4.378h0.081l0.122-3.892H332.184z M330.603,183.265
				c0-0.892-0.041-1.582-0.243-2.189c-0.973-2.757-3.325-5.392-7.136-5.392c-5.189,0-8.433,4.865-8.433,10.136
				c0,5.797,3.446,9.852,8.271,9.852c4.338,0,7.541-4.135,7.541-7.906V183.265z"/>
			<path fill="#010101" d="M357.201,191.9c0,1.419,0.081,3.284,0.203,4.825h-1.338l-0.122-4.338h-0.121
				c-1.298,2.919-4.541,4.824-7.865,4.824c-5.392,0-9.325-4.5-9.365-10.946c-0.041-7.257,4.419-11.757,9.812-11.757
				c2.757,0,5.959,1.541,7.257,4.054h0.121v-14.068h1.419V191.9z M355.782,183.549c0-4.5-3.202-7.865-7.419-7.865
				c-4.986,0-8.311,4.378-8.311,10.379c0,4.987,2.837,9.973,8.149,9.973c4.703,0,7.581-4.459,7.581-8.027V183.549z"/>
			<path fill="#010101" d="M380.355,195.711c-0.608,0.365-2.798,1.459-6.73,1.459c-6.081,0-9.893-4.581-9.893-10.906
				c0-7.541,4.257-11.757,9.568-11.757c6.446,0,8.271,5.635,8.271,10.095c0,0.284,0,0.486-0.04,0.689h-16.339
				c-0.041,6.811,3.162,10.703,8.636,10.703c3.243,0,4.864-0.811,6.04-1.378L380.355,195.711z M379.99,184.035
				c0.041-2.433-1.014-8.392-6.852-8.392c-5.068,0-7.379,4.784-7.784,8.392H379.99z"/>
			<path fill="#010101" d="M397.304,177.062c-1.175-0.852-2.595-1.378-4.014-1.378c-2.959,0-4.743,2.027-4.743,4.135
				c0,2.473,1.622,3.649,4.622,4.906c3.446,1.378,5.555,3.041,5.555,6.365c0,3.771-3.001,6.081-7.015,6.081
				c-2.026,0-3.811-0.567-5.311-1.541l0.689-1.176c1.216,0.771,3.202,1.541,4.702,1.541c2.757,0,5.474-1.703,5.474-4.662
				c0-2.595-1.581-4.054-4.784-5.352c-3.486-1.378-5.392-3.203-5.392-5.798c0-3,2.311-5.676,6.324-5.676
				c1.946,0,3.527,0.648,4.622,1.459L397.304,177.062z"/>
			<path fill="#010101" d="M406.186,170.373c-0.852,0-1.419-0.771-1.419-1.622c0-0.851,0.608-1.622,1.46-1.622
				s1.419,0.73,1.419,1.622C407.646,169.724,407.037,170.373,406.186,170.373z M406.916,196.725h-1.42v-21.731h1.42V196.725z"/>
			<path fill="#010101" d="M432.296,174.994c-0.122,1.663-0.162,3.365-0.162,5.473v13.055c0,5.797-1.257,8.473-2.96,10.135
				c-1.986,1.865-4.743,2.554-7.095,2.554c-1.946,0-5.148-0.811-6.771-1.946l0.689-1.095c1.743,1.176,4.135,1.865,6.324,1.865
				c5.271,0,8.393-3.527,8.393-9.649v-3.162h-0.122c-1.095,2.27-3.689,4.622-7.784,4.622c-5.514,0-9.365-4.906-9.365-10.744
				c0-7.825,4.987-11.595,9.73-11.595c4.5,0,6.771,2.554,7.581,4.378h0.081l0.122-3.892H432.296z M430.715,183.265
				c0-0.892-0.041-1.582-0.243-2.189c-0.974-2.757-3.324-5.392-7.136-5.392c-5.189,0-8.433,4.865-8.433,10.136
				c0,5.797,3.446,9.852,8.271,9.852c4.338,0,7.541-4.135,7.541-7.906V183.265z"/>
			<path fill="#010101" d="M457.111,196.725h-1.419v-12.933c0-4.176-1.622-8.068-6.406-8.068c-4.338,0-7.297,4.054-7.297,7.419
				v13.582h-1.42V179.9c0-1.865-0.04-3.243-0.162-4.906h1.379l0.121,4.054h0.082c1.54-2.797,4.297-4.541,7.621-4.541
				c1.703,0,7.501,0.77,7.501,9.163V196.725z"/>
			<path fill="#010101" d="M464.046,195.63c0-0.973,0.568-1.824,1.501-1.824c0.892,0,1.5,0.77,1.5,1.743
				c0,0.852-0.568,1.662-1.541,1.662S464.046,196.401,464.046,195.63z"/>
			<path fill="#010101" d="M491.534,185.657c0,8.149-5.554,11.555-10.176,11.555c-5.555,0-9.812-4.378-9.812-11.149
				c0-7.5,4.906-11.555,10.055-11.555C487.643,174.508,491.534,179.089,491.534,185.657z M481.643,175.684
				c-5.717,0-8.636,5.108-8.636,10.257c0,5.392,3.689,10.095,8.393,10.095c4.743,0,8.676-4.216,8.676-10.216
				C490.075,181.197,487.562,175.684,481.643,175.684z"/>
			<path fill="#010101" d="M506.498,175.886c-0.364-0.041-0.567-0.081-0.933-0.081c-3.527,0-6.04,3.892-6.04,8.757v12.163h-1.42
				V181.4c0-1.986-0.04-4.297-0.162-6.406h1.338l0.081,4.541h0.122c0.892-2.676,3.122-5.027,6.203-5.027
				c0.284,0,0.527,0.041,0.811,0.122V175.886z"/>
			<path fill="#010101" d="M528.677,174.994c-0.122,1.663-0.162,3.365-0.162,5.473v13.055c0,5.797-1.257,8.473-2.96,10.135
				c-1.986,1.865-4.743,2.554-7.095,2.554c-1.946,0-5.148-0.811-6.771-1.946l0.689-1.095c1.743,1.176,4.135,1.865,6.324,1.865
				c5.271,0,8.393-3.527,8.393-9.649v-3.162h-0.122c-1.095,2.27-3.689,4.622-7.784,4.622c-5.514,0-9.365-4.906-9.365-10.744
				c0-7.825,4.987-11.595,9.73-11.595c4.5,0,6.771,2.554,7.581,4.378h0.081l0.122-3.892H528.677z M527.096,183.265
				c0-0.892-0.041-1.582-0.243-2.189c-0.974-2.757-3.324-5.392-7.136-5.392c-5.189,0-8.433,4.865-8.433,10.136
				c0,5.797,3.446,9.852,8.271,9.852c4.338,0,7.541-4.135,7.541-7.906V183.265z"/>
		</g>
		<g>
			<circle fill="#26D782" cx="111" cy="111" r="111"/>
			<path fill="#FFFFFF" d="M164.628,129.124c-2.14,0-4.042,1.427-5.827,2.497c-3.686,2.14-7.608,4.162-12.008,4.162
				c-5.113,0-5.945-5.945-5.945-9.75c0-5.351,2.141-24.731,9.513-24.612c1.189,0,2.14,0.95,2.14,2.14
				c0,2.022-2.022,4.754-2.022,7.967c0,4.517,4.875,7.133,8.8,7.133c7.491,0,14.148-7.133,13.911-14.624
				c-0.356-11.058-10.345-15.813-19.976-15.813c-12.803,0-24.981,6.495-32.793,16.354c-0.858-8.637-5.722-16.474-15.839-16.474
				c-9.632,0-14.744,8.918-17.004,8.918c-1.07,0-1.426-1.19-1.426-2.142c0-4.162,0.832-8.441,1.189-12.484l0.831-7.611
				c0.477-6.657,1.309-10.106-5.944-10.106c-5.113,0-15.696,2.615-20.57,4.398c-4.162,1.428-8.799,3.092-8.799,8.205
				c0,4.161,1.426,4.399,4.994,4.638c3.567,0.237,3.567,1.427,3.567,4.757c0,9.274-1.546,20.092-2.973,29.249
				c-0.952,5.708-2.734,14.388-2.734,19.975c0,11.772,12.127,15.339,21.877,15.339c15.884,0,27.534-6.54,34.677-16.779
				c2.422,11.812,12.632,16.779,25.372,16.779c8.441,0,15.695-2.142,22.947-6.184c3.33-1.783,8.68-5.112,8.68-9.394
				C169.266,133.046,167.72,129.124,164.628,129.124z M84.011,138.636c-2.14,0-2.378-2.377-2.616-4.042
				c-0.356-2.022,2.26-27.824,9.037-27.824c3.092,0,3.211,4.52,3.329,6.659C93.879,115.449,91.383,138.636,84.011,138.636z"/>
		</g>
	</g>
</g>
<g id="Isolation_Mode">
</g>
</svg>
